<?xml version="1.0" encoding="UTF-8" standalone="no"?>
<!DOCTYPE svg PUBLIC "-//W3C//DTD SVG 1.1//EN" "http://www.w3.org/Graphics/SVG/1.1/DTD/svg11.dtd">
<svg width="100%" height="100%" viewBox="0 0 3300 3300" version="1.1" xmlns="http://www.w3.org/2000/svg" xmlns:xlink="http://www.w3.org/1999/xlink" xml:space="preserve" xmlns:serif="http://www.serif.com/" style="fill-rule:evenodd;clip-rule:evenodd;stroke-linejoin:round;stroke-miterlimit:2;">
    <g transform="matrix(1,0,0,1,0,-300)">
        <path d="M3300,1650L3300,3300L442.116,3300L572.02,3225L3225,3225L3225,1693.301L3300,1650Z" style="fill:rgb(173,50,33);"/>
    </g>
    <g transform="matrix(1,0,0,1,0,300)">
        <path d="M0,1650L0,0L2857.884,0L2727.98,75L75,75L75,1606.699L0,1650Z" style="fill:rgb(173,50,33);"/>
    </g>
    <g transform="matrix(1.301718,0,0,1.652362,6.016279,137.493259)">
        <path d="M1654.018,1237.578C1638.279,1243.416 1623.479,1246.335 1609.618,1246.335C1584.818,1246.335 1564.818,1237.535 1549.618,1219.935C1534.418,1202.335 1526.818,1176.735 1526.818,1143.135L1526.818,988.335C1507.618,1070.735 1477.218,1134.735 1435.618,1180.335C1394.018,1225.935 1343.618,1248.735 1284.418,1248.735C1229.218,1248.735 1186.018,1231.935 1154.818,1198.335C1123.618,1164.735 1108.018,1115.535 1108.018,1050.735L1108.018,647.535L1218.418,647.535L1218.418,1067.535C1218.418,1117.935 1226.418,1156.735 1242.418,1183.935C1258.418,1211.135 1283.218,1224.735 1316.818,1224.735C1346.418,1224.735 1375.618,1212.535 1404.418,1188.135C1433.218,1163.735 1458.818,1126.135 1481.218,1075.335C1503.618,1024.535 1518.818,961.535 1526.818,886.335L1526.818,647.535L1637.218,647.535L1637.218,1143.135C1637.218,1175.379 1642.818,1196.223 1654.018,1205.667L1654.018,407.535L1764.418,407.535L1764.418,811.935L2173.618,811.935L2173.618,407.535L2284.018,407.535L2284.018,1247.535L2173.618,1247.535L2173.618,827.535L1764.418,827.535L1764.418,1247.535L1654.018,1247.535L1654.018,1237.578ZM961.618,811.935L961.618,407.535L1072.018,407.535L1072.018,1247.535L961.618,1247.535L961.618,827.535L552.418,827.535L552.418,1247.535L442.018,1247.535L442.018,407.535L552.418,407.535L552.418,811.935L961.618,811.935Z" style="fill:rgb(216,205,205);"/>
    </g>
    <g transform="matrix(17.508289,0,0,17.508289,-6047.720942,-45857.550401)">
        <path d="M393.015,2732.741C392.172,2732.952 391.323,2733.145 390.467,2733.321C389.634,2734.654 388.65,2736.471 387.517,2738.771C383.117,2747.971 378.925,2755.337 374.942,2760.871C370.959,2766.404 366.884,2770.187 362.717,2772.221C359.784,2773.721 357.134,2774.471 354.767,2774.471C352.8,2774.471 350.917,2773.971 349.117,2772.971C348.084,2772.371 347.284,2771.471 346.717,2770.271C343.917,2770.771 341.084,2771.021 338.217,2771.021C336.65,2771.021 334.867,2770.937 332.867,2770.771C329.134,2770.404 326,2769.554 323.467,2768.221C320.934,2766.887 319.05,2765.271 317.817,2763.371C316.584,2761.471 315.967,2759.487 315.967,2757.421C315.967,2755.354 316.567,2753.396 317.767,2751.546C318.967,2749.696 320.7,2748.212 322.967,2747.096C325.234,2745.979 327.884,2745.421 330.917,2745.421C331.884,2745.421 333.067,2745.504 334.467,2745.671C337.667,2746.137 340.5,2746.879 342.967,2747.896C345.434,2748.912 347.217,2749.804 348.317,2750.571L348.167,2750.721C347.1,2750.021 345.334,2749.171 342.867,2748.171C340.4,2747.171 337.6,2746.454 334.467,2746.021C333.2,2745.854 332.1,2745.771 331.167,2745.771C328.367,2745.771 325.967,2746.271 323.967,2747.271C321.967,2748.271 320.45,2749.604 319.417,2751.271C318.384,2752.937 317.867,2754.754 317.867,2756.721C317.867,2758.754 318.442,2760.729 319.592,2762.646C320.742,2764.562 322.467,2766.221 324.767,2767.621C327.067,2769.021 329.867,2769.937 333.167,2770.371C335.234,2770.637 337.167,2770.771 338.967,2770.771C341.467,2770.771 344.017,2770.537 346.617,2770.071C346.117,2768.871 345.867,2767.471 345.867,2765.871C345.867,2763.771 346.292,2761.487 347.142,2759.021C347.992,2756.554 349.217,2754.104 350.817,2751.671C352.55,2749.037 354.584,2746.621 356.917,2744.421C359.25,2742.221 361.634,2740.471 364.067,2739.171C363.867,2738.771 363.5,2738.204 362.967,2737.471L362.767,2737.471C362.434,2737.471 362.034,2737.221 361.567,2736.721C361.3,2736.454 361.1,2736.279 360.967,2736.196C360.834,2736.112 360.7,2736.121 360.567,2736.221L360.567,2736.121C360.567,2735.954 360.634,2735.829 360.767,2735.746C360.9,2735.662 361.05,2735.654 361.217,2735.721C361.05,2735.487 360.967,2735.271 360.967,2735.071C360.967,2734.904 361.034,2734.754 361.167,2734.621C361.234,2734.554 361.334,2734.521 361.467,2734.521C361.734,2734.521 361.967,2734.671 362.167,2734.971C362.167,2734.771 362.242,2734.621 362.392,2734.521C362.542,2734.421 362.7,2734.404 362.867,2734.471C362.767,2734.504 362.717,2734.604 362.717,2734.771C362.717,2734.937 362.85,2735.204 363.117,2735.571C363.35,2735.937 363.5,2736.229 363.567,2736.446C363.634,2736.662 363.617,2736.854 363.517,2737.021C363.984,2737.721 364.35,2738.337 364.617,2738.871C367.15,2737.571 369.45,2736.921 371.517,2736.921C372.384,2736.921 373.084,2737.004 373.617,2737.171C374.65,2737.471 375.425,2738.004 375.942,2738.771C376.459,2739.537 376.717,2740.487 376.717,2741.621C376.717,2743.321 376.175,2745.329 375.092,2747.646C374.009,2749.962 372.492,2752.379 370.542,2754.896C368.592,2757.412 366.35,2759.804 363.817,2762.071C359.217,2766.204 353.617,2768.921 347.017,2770.221C347.584,2771.321 348.367,2772.154 349.367,2772.721C350.467,2773.321 351.7,2773.621 353.067,2773.621C354.334,2773.621 355.642,2773.354 356.992,2772.821C358.342,2772.287 359.8,2771.554 361.367,2770.621C365.9,2767.887 370.592,2763.271 375.442,2756.771C380.292,2750.271 385.134,2742.487 389.967,2733.421L387.167,2733.871L385.767,2736.321C384.067,2739.254 382.692,2741.571 381.642,2743.271C380.592,2744.971 379.384,2746.821 378.017,2748.821C375.317,2752.721 372.775,2756.154 370.392,2759.121C368.009,2762.087 365.375,2764.721 362.492,2767.021C359.609,2769.321 356.7,2770.721 353.767,2771.221L353.867,2771.021C356.767,2770.421 359.634,2768.954 362.467,2766.621C365.3,2764.287 367.867,2761.679 370.167,2758.796C372.467,2755.912 375.05,2752.404 377.917,2748.271C380.184,2745.004 382.567,2741.121 385.067,2736.621L386.567,2733.971C386.267,2734.009 385.964,2734.045 385.658,2734.078C385.409,2734.452 385.245,2734.883 385.167,2735.371L385.067,2735.371C385.104,2734.914 385.218,2734.492 385.41,2734.105C383.113,2734.349 380.682,2734.471 378.117,2734.471C376.25,2734.471 374.067,2734.387 371.567,2734.221C366.967,2733.854 363.142,2732.971 360.092,2731.571C357.042,2730.171 354.8,2728.471 353.367,2726.471C351.934,2724.471 351.217,2722.371 351.217,2720.171C351.217,2718.071 351.809,2716.104 352.992,2714.271C354.175,2712.437 355.842,2710.954 357.992,2709.821C360.142,2708.687 362.6,2708.121 365.367,2708.121C366.667,2708.121 368.05,2708.271 369.517,2708.571C373.017,2709.304 375.892,2710.596 378.142,2712.446C380.392,2714.296 382.05,2716.296 383.117,2718.446C384.184,2720.596 384.867,2722.654 385.167,2724.621L384.967,2724.621C384.167,2721.954 383.325,2719.737 382.442,2717.971C381.559,2716.204 380.134,2714.512 378.167,2712.896C376.2,2711.279 373.517,2710.004 370.117,2709.071C368.817,2708.704 367.467,2708.521 366.067,2708.521C363.7,2708.521 361.567,2709.071 359.667,2710.171C357.767,2711.271 356.275,2712.721 355.192,2714.521C354.109,2716.321 353.567,2718.237 353.567,2720.271C353.567,2722.371 354.192,2724.362 355.442,2726.246C356.692,2728.129 358.675,2729.746 361.392,2731.096C364.109,2732.446 367.534,2733.337 371.667,2733.771C374.4,2734.037 376.85,2734.171 379.017,2734.171C381.082,2734.171 383.27,2734.047 385.581,2733.801C385.711,2733.596 385.865,2733.403 386.042,2733.221C386.325,2732.929 386.759,2732.709 387.345,2732.559C388.914,2729.821 390.404,2727.525 391.817,2725.671C392.317,2725.037 392.917,2724.071 393.617,2722.771C394.384,2721.537 394.984,2720.637 395.417,2720.071C395.85,2719.504 396.234,2719.304 396.567,2719.471C396.734,2719.537 396.817,2719.654 396.817,2719.821C396.817,2720.121 396.609,2720.562 396.192,2721.146C395.775,2721.729 395.134,2722.504 394.267,2723.471C393.934,2723.871 393.6,2724.279 393.267,2724.696C392.934,2725.112 392.6,2725.537 392.267,2725.971C390.989,2727.743 389.571,2729.896 388.014,2732.428C388.505,2732.356 389.073,2732.321 389.717,2732.321C389.994,2732.321 390.267,2732.321 390.535,2732.323L391.217,2731.021C393.284,2727.021 395.592,2723.729 398.142,2721.146C400.692,2718.562 403.184,2716.696 405.617,2715.546C408.05,2714.396 410.25,2713.821 412.217,2713.821C413.65,2713.821 414.75,2714.104 415.517,2714.671C416.584,2715.471 417.117,2716.437 417.117,2717.571C417.117,2719.237 415.942,2721.104 413.592,2723.171C411.606,2724.918 408.589,2726.724 404.543,2728.59L401.467,2733.071C404.067,2733.471 406.084,2733.671 407.517,2733.671C408.484,2733.671 409.417,2733.604 410.317,2733.471C411.75,2733.271 412.834,2732.896 413.567,2732.346C414.3,2731.796 414.667,2731.204 414.667,2730.571C414.667,2730.237 414.567,2729.921 414.367,2729.621L414.467,2729.621C414.7,2729.921 414.817,2730.321 414.817,2730.821C414.817,2731.621 414.475,2732.387 413.792,2733.121C413.109,2733.854 412.034,2734.304 410.567,2734.471C409.9,2734.537 409.384,2734.571 409.017,2734.571C407.517,2734.571 405.45,2734.337 402.817,2733.871C402.484,2733.837 401.9,2733.754 401.067,2733.621L385.667,2756.021L384.717,2757.471C383.317,2759.671 382.3,2761.346 381.667,2762.496C381.034,2763.646 380.717,2764.571 380.717,2765.271C380.717,2765.704 380.884,2765.987 381.217,2766.121C381.35,2766.187 381.567,2766.221 381.867,2766.221C382.567,2766.221 383.4,2765.796 384.367,2764.946C385.209,2764.205 386.241,2763.091 387.463,2761.604C387.881,2759.701 388.966,2757.557 390.717,2755.171L397.017,2746.671C397.384,2746.171 397.767,2745.921 398.167,2745.921C398.267,2745.921 398.55,2745.954 399.017,2746.021C399.15,2746.054 399.35,2746.071 399.617,2746.071C400.017,2746.071 400.484,2746.004 401.017,2745.871C396.55,2751.937 393.484,2756.187 391.817,2758.621C389.75,2761.687 388.717,2763.821 388.717,2765.021C388.717,2765.754 389.034,2766.137 389.667,2766.171L390.217,2766.221C392.584,2766.221 395.184,2763.987 398.017,2759.521C398.784,2758.254 399.367,2757.304 399.767,2756.671C401.134,2754.637 402.517,2752.654 403.917,2750.721L406.767,2746.671C407.1,2746.171 407.467,2745.921 407.867,2745.921C407.967,2745.921 408.25,2745.954 408.717,2746.021C408.85,2746.054 409.05,2746.071 409.317,2746.071C409.65,2746.071 410.084,2746.004 410.617,2745.871C409.117,2748.004 407.567,2750.121 405.967,2752.221C404.3,2754.454 403.367,2755.721 403.167,2756.021L402.417,2757.071C400.917,2759.304 399.775,2761.071 398.992,2762.371C398.209,2763.671 397.817,2764.671 397.817,2765.371C397.817,2765.737 397.967,2766.004 398.267,2766.171C398.4,2766.237 398.6,2766.271 398.867,2766.271C399.534,2766.271 400.367,2765.846 401.367,2764.996C402.367,2764.146 403.667,2762.787 405.267,2760.921C405.734,2760.385 406.269,2759.739 406.873,2758.982C407.214,2757.945 407.679,2756.908 408.267,2755.871C409.967,2752.737 411.984,2750.196 414.317,2748.246C416.65,2746.296 418.984,2745.437 421.317,2745.671C422.884,2745.871 423.667,2746.837 423.667,2748.571C423.667,2749.504 423.417,2750.604 422.917,2751.871C427.117,2745.671 431.417,2739.337 435.817,2732.871C440.217,2726.404 443.25,2721.954 444.917,2719.521C445.117,2719.221 445.292,2719.021 445.442,2718.921C445.592,2718.821 445.767,2718.771 445.967,2718.771C446.067,2718.771 446.35,2718.804 446.817,2718.871C446.984,2718.904 447.2,2718.921 447.467,2718.921C447.767,2718.921 448.184,2718.854 448.717,2718.721L423.067,2756.021L422.117,2757.471C420.717,2759.671 419.7,2761.346 419.067,2762.496C418.434,2763.646 418.117,2764.571 418.117,2765.271C418.117,2765.704 418.284,2765.987 418.617,2766.121C418.75,2766.187 418.967,2766.221 419.267,2766.221C419.967,2766.221 420.8,2765.796 421.767,2764.946C422.469,2764.328 423.304,2763.451 424.27,2762.314C424.754,2760.75 425.737,2758.869 427.217,2756.671C428.584,2754.637 429.967,2752.654 431.367,2750.721L434.217,2746.671C434.55,2746.171 434.917,2745.921 435.317,2745.921C435.417,2745.921 435.7,2745.954 436.167,2746.021C436.3,2746.054 436.5,2746.071 436.767,2746.071C437.1,2746.071 437.534,2746.004 438.067,2745.871C436.567,2748.004 435.017,2750.121 433.417,2752.221C431.75,2754.454 430.817,2755.721 430.617,2756.021L429.817,2757.171C428.35,2759.304 427.217,2761.037 426.417,2762.371C425.617,2763.704 425.217,2764.721 425.217,2765.421C425.217,2765.754 425.367,2766.004 425.667,2766.171C425.8,2766.237 426,2766.271 426.267,2766.271C426.967,2766.271 427.825,2765.846 428.842,2764.996C429.859,2764.146 431.15,2762.787 432.717,2760.921C433.302,2760.236 433.993,2759.384 434.791,2758.365C435.152,2757.045 435.744,2755.73 436.567,2754.421C438.367,2751.587 440.284,2749.396 442.317,2747.846C444.35,2746.296 446.267,2745.521 448.067,2745.521C448.734,2745.521 449.334,2745.621 449.867,2745.821C451.1,2746.254 451.717,2747.287 451.717,2748.921C451.717,2750.354 451.25,2752.096 450.317,2754.146C449.384,2756.196 448.2,2758.187 446.767,2760.121C447.1,2760.521 447.534,2760.721 448.067,2760.721C448.434,2760.721 448.85,2760.604 449.317,2760.371C449.591,2760.246 449.87,2760.073 450.155,2759.852C450.304,2759.088 450.541,2758.345 450.867,2757.621C451.6,2756.087 452.234,2754.954 452.767,2754.221C453.3,2753.487 453.817,2753.121 454.317,2753.121C454.484,2753.121 454.65,2753.171 454.817,2753.271L456.117,2751.721C457.95,2749.554 459.492,2747.696 460.742,2746.146C461.992,2744.596 462.9,2743.321 463.467,2742.321C463.867,2740.821 464.325,2739.679 464.842,2738.896C465.359,2738.112 465.8,2737.721 466.167,2737.721C466.467,2737.721 466.617,2737.921 466.617,2738.321C466.617,2738.787 466.367,2739.396 465.867,2740.146C465.367,2740.896 464.6,2741.687 463.567,2742.521L463.417,2742.821C463.35,2743.221 463.317,2743.521 463.317,2743.721C463.317,2744.254 463.409,2744.846 463.592,2745.496C463.775,2746.146 463.884,2746.537 463.917,2746.671C464.217,2747.737 464.442,2748.654 464.592,2749.421C464.742,2750.187 464.817,2751.037 464.817,2751.971C464.817,2753.304 464.6,2754.787 464.167,2756.421C463.6,2758.487 462.792,2760.329 461.742,2761.946C460.692,2763.562 459.467,2764.787 458.067,2765.621C460.567,2765.154 462.95,2763.587 465.217,2760.921C466.55,2759.321 468.5,2756.804 471.067,2753.371L471.367,2753.371C468.934,2756.671 466.95,2759.237 465.417,2761.071C462.35,2764.771 458.85,2766.654 454.917,2766.721C454.717,2766.754 454.417,2766.771 454.017,2766.771C452.617,2766.771 451.592,2766.296 450.942,2765.346C450.292,2764.396 449.967,2763.221 449.967,2761.821C449.967,2761.281 450.008,2760.75 450.089,2760.228C449.832,2760.423 449.591,2760.571 449.367,2760.671C448.867,2760.871 448.434,2760.971 448.067,2760.971C447.5,2760.971 446.984,2760.771 446.517,2760.371C445.05,2762.237 443.559,2763.746 442.042,2764.896C440.525,2766.046 439.167,2766.621 437.967,2766.621C436.867,2766.621 435.992,2766.137 435.342,2765.171C434.692,2764.204 434.367,2762.971 434.367,2761.471C434.367,2760.645 434.456,2759.821 434.635,2759C434.015,2759.776 433.443,2760.467 432.917,2761.071C431.317,2763.004 429.975,2764.412 428.892,2765.296C427.809,2766.179 426.834,2766.621 425.967,2766.621C425.367,2766.621 424.875,2766.437 424.492,2766.071C424.109,2765.704 423.917,2765.137 423.917,2764.371C423.917,2763.932 423.978,2763.454 424.1,2762.938C423.242,2763.936 422.481,2764.713 421.817,2765.271C420.784,2766.137 419.834,2766.571 418.967,2766.571C418.3,2766.571 417.767,2766.362 417.367,2765.946C416.967,2765.529 416.767,2764.921 416.767,2764.121C416.767,2762.887 417.217,2761.354 418.117,2759.521C414.584,2764.387 411.6,2766.821 409.167,2766.821C408.167,2766.821 407.417,2766.479 406.917,2765.796C406.417,2765.112 406.167,2764.171 406.167,2762.971C406.167,2761.955 406.336,2760.842 406.675,2759.633C406.248,2760.157 405.845,2760.636 405.467,2761.071C403.867,2763.004 402.525,2764.404 401.442,2765.271C400.359,2766.137 399.384,2766.571 398.517,2766.571C397.884,2766.571 397.384,2766.387 397.017,2766.021C396.65,2765.654 396.467,2765.104 396.467,2764.371C396.467,2763.504 396.734,2762.421 397.267,2761.121C395.667,2763.387 394.217,2764.904 392.917,2765.671C391.617,2766.437 390.484,2766.754 389.517,2766.621C388.85,2766.554 388.309,2766.229 387.892,2765.646C387.475,2765.062 387.267,2764.287 387.267,2763.321C387.267,2762.941 387.298,2762.55 387.361,2762.147C386.229,2763.533 385.248,2764.574 384.417,2765.271C383.384,2766.137 382.434,2766.571 381.567,2766.571C380.9,2766.571 380.367,2766.362 379.967,2765.946C379.567,2765.529 379.367,2764.904 379.367,2764.071C379.367,2762.271 380.334,2759.804 382.267,2756.671L398.167,2733.221C396.237,2733 394.519,2732.84 393.015,2732.741ZM385.898,2733.766C386.17,2733.736 386.443,2733.704 386.717,2733.671C386.852,2733.429 386.986,2733.191 387.119,2732.955C386.795,2733.066 386.527,2733.205 386.317,2733.371C386.163,2733.493 386.023,2733.624 385.898,2733.766ZM387.799,2732.779C387.639,2733.039 387.479,2733.303 387.317,2733.571L390.117,2733.121L390.376,2732.626C390.167,2732.622 389.964,2732.621 389.767,2732.621C389.002,2732.621 388.346,2732.673 387.799,2732.779ZM390.852,2732.637C390.773,2732.764 390.695,2732.892 390.617,2733.021C391.13,2732.918 391.641,2732.808 392.152,2732.69C391.697,2732.666 391.263,2732.648 390.852,2732.637ZM404.923,2728.036C408.625,2726.218 411.423,2724.513 413.317,2722.921C415.617,2720.987 416.767,2719.337 416.767,2717.971C416.767,2717.071 416.3,2716.404 415.367,2715.971C414.8,2715.671 414.05,2715.521 413.117,2715.521C411.25,2715.521 409.05,2716.112 406.517,2717.296C403.984,2718.479 401.317,2720.379 398.517,2722.996C395.878,2725.462 393.387,2728.572 391.045,2732.326C391.898,2732.333 392.707,2732.347 393.473,2732.367C395.772,2731.775 398.049,2731.025 400.304,2730.119L407.517,2719.521C407.717,2719.221 407.892,2719.021 408.042,2718.921C408.192,2718.821 408.367,2718.771 408.567,2718.771C408.667,2718.771 408.95,2718.804 409.417,2718.871C409.584,2718.904 409.8,2718.921 410.067,2718.921C410.367,2718.921 410.784,2718.854 411.317,2718.721L404.923,2728.036ZM394.337,2732.394C395.967,2732.452 397.377,2732.544 398.567,2732.671L400.033,2730.516C398.17,2731.237 396.272,2731.863 394.337,2732.394ZM450.381,2759.992C450.272,2760.591 450.217,2761.2 450.217,2761.821C450.217,2763.187 450.525,2764.312 451.142,2765.196C451.759,2766.079 452.75,2766.521 454.117,2766.521C456.117,2766.521 457.742,2765.504 458.992,2763.471C460.242,2761.437 461.134,2758.887 461.667,2755.821C462.267,2752.454 462.634,2749.337 462.767,2746.471C462.767,2746.337 462.8,2745.896 462.867,2745.146C462.934,2744.396 463.034,2743.754 463.167,2743.221C462.2,2744.787 460.267,2747.287 457.367,2750.721C457,2751.187 456.625,2751.646 456.242,2752.096C455.886,2752.513 455.537,2752.938 455.196,2753.371L455.467,2753.371C455.413,2753.457 455.326,2753.592 455.205,2753.776C455.185,2754.072 454.931,2754.47 454.442,2754.971C454.411,2755.002 454.379,2755.034 454.347,2755.066C454.236,2755.232 454.118,2755.408 453.992,2755.596C453.175,2756.812 452.35,2757.896 451.517,2758.846C451.111,2759.309 450.732,2759.691 450.381,2759.992ZM453.504,2755.81C452.894,2756.302 452.132,2756.839 451.217,2757.421C450.88,2758.129 450.628,2758.854 450.461,2759.597C450.845,2759.257 451.238,2758.832 451.642,2758.321C452.204,2757.61 452.824,2756.773 453.504,2755.81ZM371.347,2747.123C370.62,2747.227 369.851,2747.585 369.042,2748.196C368.225,2748.812 367.517,2749.721 366.917,2750.921L366.267,2752.471C365.167,2755.371 364.284,2757.354 363.617,2758.421C361.917,2761.787 359.634,2764.487 356.767,2766.521C359.167,2765.287 361.384,2763.754 363.417,2761.921C367.25,2758.487 370.375,2754.887 372.792,2751.121C375.209,2747.354 376.417,2744.204 376.417,2741.671C376.417,2739.437 375.434,2738.037 373.467,2737.471C372.934,2737.304 372.267,2737.221 371.467,2737.221C369.467,2737.221 367.234,2737.854 364.767,2739.121C365,2739.621 365.3,2740.371 365.667,2741.371C366.134,2742.871 366.367,2744.654 366.367,2746.721C366.367,2749.221 366.017,2751.654 365.317,2754.021C365.884,2752.487 366.384,2751.337 366.817,2750.571C367.484,2749.371 368.242,2748.487 369.092,2747.921C369.942,2747.354 370.817,2747.054 371.717,2747.021C370.684,2747.621 369.8,2748.196 369.067,2748.746C368.334,2749.296 367.767,2750.021 367.367,2750.921C367.6,2750.787 368.017,2750.587 368.617,2750.321C369.584,2749.887 370.35,2749.512 370.917,2749.196C371.484,2748.879 372.1,2748.437 372.767,2747.871C374.034,2746.671 374.684,2745.587 374.717,2744.621C374.45,2744.821 373.767,2745.071 372.667,2745.371C371.467,2745.704 370.567,2746.021 369.967,2746.321C367.934,2747.287 366.667,2749.021 366.167,2751.521C366.3,2750.321 366.675,2749.237 367.292,2748.271C367.909,2747.304 368.784,2746.554 369.917,2746.021C370.384,2745.821 371.117,2745.587 372.117,2745.321C372.884,2745.121 373.5,2744.929 373.967,2744.746C374.434,2744.562 374.834,2744.321 375.167,2744.021C375.2,2744.154 375.159,2744.471 375.042,2744.971C374.925,2745.471 374.692,2746.029 374.342,2746.646C373.992,2747.262 373.517,2747.804 372.917,2748.271C372.317,2748.804 371.709,2749.229 371.092,2749.546C370.475,2749.862 369.75,2750.204 368.917,2750.571C368.084,2750.904 367.434,2751.221 366.967,2751.521C367.167,2750.721 367.559,2749.996 368.142,2749.346C368.725,2748.696 369.342,2748.171 369.992,2747.771C370.626,2747.381 371.078,2747.165 371.347,2747.123ZM350.867,2752.121C349.334,2754.454 348.167,2756.821 347.367,2759.221C346.567,2761.621 346.167,2763.837 346.167,2765.871C346.167,2767.437 346.417,2768.804 346.917,2769.971C349.984,2769.404 352.884,2768.454 355.617,2767.121L356.267,2766.671C357.734,2765.071 358.85,2763.071 359.617,2760.671C359.817,2759.971 359.917,2759.287 359.917,2758.621C359.917,2757.654 359.759,2756.746 359.442,2755.896C359.125,2755.046 358.717,2754.421 358.217,2754.021C358.784,2754.821 359.184,2755.887 359.417,2757.221C359.55,2757.787 359.617,2758.387 359.617,2759.021C359.617,2759.787 359.467,2760.421 359.167,2760.921C359.067,2760.587 358.9,2760.262 358.667,2759.946C358.434,2759.629 358.1,2759.237 357.667,2758.771C356.867,2757.937 356.25,2757.154 355.817,2756.421C355.384,2755.687 355.167,2754.771 355.167,2753.671C355.167,2752.871 355.292,2752.087 355.542,2751.321C355.792,2750.554 356.075,2749.904 356.392,2749.371C356.709,2748.837 356.934,2748.537 357.067,2748.471C357.134,2748.904 357.325,2749.379 357.642,2749.896C357.959,2750.412 358.417,2751.087 359.017,2751.921C359.884,2753.054 360.434,2753.871 360.667,2754.371C361.1,2755.271 361.317,2756.204 361.317,2757.171C361.317,2758.371 360.967,2759.604 360.267,2760.871C360.8,2759.637 361.067,2758.504 361.067,2757.471C361.067,2756.437 360.8,2755.454 360.267,2754.521C360.034,2754.054 359.717,2753.529 359.317,2752.946C358.917,2752.362 358.65,2751.971 358.517,2751.771C358.417,2751.637 358.167,2751.279 357.767,2750.696C357.367,2750.112 357.117,2749.637 357.017,2749.271C356.217,2750.271 355.817,2751.521 355.817,2753.021C355.817,2754.221 356.025,2755.204 356.442,2755.971C356.859,2756.737 357.417,2757.521 358.117,2758.321C358.75,2759.021 359.15,2759.604 359.317,2760.071C359.384,2759.871 359.417,2759.571 359.417,2759.171C359.417,2758.637 359.367,2758.071 359.267,2757.471C359.167,2756.837 359,2756.237 358.767,2755.671C358.534,2755.104 358.2,2754.421 357.767,2753.621C358.534,2754.154 359.15,2754.871 359.617,2755.771C360.084,2756.671 360.317,2757.637 360.317,2758.671C360.317,2759.271 360.217,2759.904 360.017,2760.571C359.65,2761.837 359.259,2762.871 358.842,2763.671C358.425,2764.471 357.8,2765.271 356.967,2766.071C360.067,2763.504 362.4,2760.337 363.967,2756.571L363.867,2756.721C364.134,2755.954 364.334,2755.046 364.467,2753.996C364.6,2752.946 364.667,2751.987 364.667,2751.121C364.667,2750.654 364.634,2750.221 364.567,2749.821C364.534,2748.887 364.259,2748.087 363.742,2747.421C363.225,2746.754 362.667,2746.304 362.067,2746.071C362.3,2746.171 362.6,2746.429 362.967,2746.846C363.334,2747.262 363.659,2747.821 363.942,2748.521C364.225,2749.221 364.367,2750.021 364.367,2750.921C364.367,2751.387 364.317,2751.871 364.217,2752.371C364.05,2751.737 363.817,2751.221 363.517,2750.821C363.217,2750.421 362.767,2749.937 362.167,2749.371C361.467,2748.771 360.9,2748.137 360.467,2747.471C360,2746.671 359.767,2745.704 359.767,2744.571C359.767,2744.171 359.8,2743.787 359.867,2743.421C359.934,2743.054 360,2742.837 360.067,2742.771C360.3,2743.204 360.6,2743.546 360.967,2743.796C361.334,2744.046 361.834,2744.304 362.467,2744.571C363.134,2744.837 363.6,2745.071 363.867,2745.271C364.934,2746.071 365.467,2747.221 365.467,2748.721C365.467,2749.387 365.367,2750.054 365.167,2750.721C365.267,2750.221 365.317,2749.704 365.317,2749.171C365.317,2747.537 364.767,2746.337 363.667,2745.571C363.367,2745.337 362.8,2745.037 361.967,2744.671L361.367,2744.371C361.034,2744.204 360.775,2744.046 360.592,2743.896C360.409,2743.746 360.267,2743.587 360.167,2743.421C360.067,2743.654 360.017,2743.954 360.017,2744.321C360.017,2745.354 360.3,2746.304 360.867,2747.171C361.134,2747.637 361.45,2748.054 361.817,2748.421L362.467,2749.071C362.967,2749.504 363.35,2749.887 363.617,2750.221C363.884,2750.554 364.067,2750.987 364.167,2751.521C364.234,2749.321 363.45,2747.471 361.817,2745.971C362.617,2746.104 363.292,2746.521 363.842,2747.221C364.392,2747.921 364.734,2748.737 364.867,2749.671C364.967,2750.771 365.017,2751.454 365.017,2751.721C365.017,2752.621 364.917,2753.521 364.717,2754.421C365.484,2751.887 365.867,2749.371 365.867,2746.871C365.867,2744.871 365.634,2743.121 365.167,2741.621C365.067,2741.121 364.75,2740.387 364.217,2739.421C361.784,2740.787 359.375,2742.587 356.992,2744.821C354.609,2747.054 352.567,2749.487 350.867,2752.121ZM409.317,2766.521C410.617,2766.521 412.109,2765.696 413.792,2764.046C415.475,2762.396 417.217,2760.304 419.017,2757.771L419.667,2756.671L421.917,2753.371C422.917,2751.537 423.417,2749.954 423.417,2748.621C423.417,2747.887 423.234,2747.304 422.867,2746.871C422.5,2746.437 421.934,2746.221 421.167,2746.221C419.667,2746.221 417.975,2747.271 416.092,2749.371C414.209,2751.471 412.5,2753.937 410.967,2756.771C408.934,2760.604 407.917,2763.321 407.917,2764.921C407.917,2765.987 408.384,2766.521 409.317,2766.521ZM437.967,2766.421C439.134,2766.421 440.459,2765.837 441.942,2764.671C443.425,2763.504 444.867,2761.987 446.267,2760.121L446.267,2760.071C446.067,2759.771 445.967,2759.421 445.967,2759.021C445.967,2758.387 446.175,2757.687 446.592,2756.921C447.009,2756.154 447.525,2755.504 448.142,2754.971C448.759,2754.437 449.35,2754.171 449.917,2754.171C450.95,2752.004 451.467,2750.237 451.467,2748.871C451.467,2747.537 450.95,2746.654 449.917,2746.221C449.617,2746.087 449.267,2746.021 448.867,2746.021C447.5,2746.021 445.984,2746.846 444.317,2748.496C442.65,2750.146 441.034,2752.304 439.467,2754.971C438.434,2756.737 437.6,2758.437 436.967,2760.071C436.334,2761.704 436.017,2763.054 436.017,2764.121C436.017,2765.654 436.667,2766.421 437.967,2766.421ZM439.867,2739.321C440.334,2739.187 440.675,2739.004 440.892,2738.771C441.109,2738.537 441.184,2738.387 441.117,2738.321C440.817,2738.221 440.584,2738.054 440.417,2737.821C440.25,2737.587 440.167,2737.321 440.167,2737.021C440.167,2736.487 440.4,2736.004 440.867,2735.571C441.334,2735.137 441.85,2734.921 442.417,2734.921C442.85,2734.921 443.184,2735.087 443.417,2735.421C443.65,2735.754 443.734,2736.154 443.667,2736.621C443.5,2737.521 443.042,2738.212 442.292,2738.696C441.542,2739.179 440.784,2739.404 440.017,2739.371L439.867,2739.321Z" style="fill:rgb(173,50,33);stroke:rgb(173,50,33);stroke-width:0.64px;"/>
    </g>
</svg>
