<?xml version="1.0" encoding="UTF-8" standalone="no"?>
<!DOCTYPE svg PUBLIC "-//W3C//DTD SVG 1.1//EN" "http://www.w3.org/Graphics/SVG/1.1/DTD/svg11.dtd">
<svg width="100%" height="100%" viewBox="0 0 3000 2000" version="1.1" xmlns="http://www.w3.org/2000/svg" xmlns:xlink="http://www.w3.org/1999/xlink" xml:space="preserve" xmlns:serif="http://www.serif.com/" style="fill-rule:evenodd;clip-rule:evenodd;stroke-linejoin:round;stroke-miterlimit:2;">
    <g transform="matrix(1,0,0,0.8,0,200)">
        <path d="M0,1000L0,0L1385.641,0L1299.038,62.5L50,62.5L50,963.916L0,1000ZM3000,1000L3000,2000L1614.359,2000L1700.962,1937.5L2950,1937.5L2950,1036.084L3000,1000ZM867.795,1145.444C860.816,1147.323 853.775,1149.077 846.672,1150.705C839.631,1166.935 831.748,1189.05 823.021,1217.047C789.612,1329.038 755.348,1418.712 720.229,1486.069C685.11,1553.425 645.909,1599.48 602.626,1624.231C572.274,1642.49 543.799,1651.62 517.201,1651.62C495.098,1651.62 473.059,1645.534 451.086,1633.361C438.426,1626.057 427.866,1615.101 419.405,1600.494C388.808,1606.58 357.401,1609.624 325.183,1609.624C307.575,1609.624 287.387,1608.609 264.619,1606.58C222.022,1602.117 185.325,1591.77 154.528,1575.539C123.731,1559.309 99.746,1539.629 82.572,1516.501C65.398,1493.372 55.009,1469.229 51.405,1444.072C47.801,1418.915 51.13,1395.076 61.391,1372.556C71.651,1350.036 88.545,1331.98 112.073,1318.387C135.6,1304.794 164.41,1297.997 198.501,1297.997C209.365,1297.997 222.809,1299.012 238.834,1301.04C275.612,1306.721 308.749,1315.749 338.244,1328.125C367.739,1340.501 389.336,1351.355 403.036,1360.688L401.611,1362.514C388.403,1353.993 367.065,1343.646 337.599,1331.473C308.133,1319.3 275.415,1310.576 239.445,1305.301C224.918,1303.272 212.41,1302.258 201.921,1302.258C170.452,1302.258 144.351,1308.344 123.617,1320.517C102.883,1332.69 88.162,1348.92 79.455,1369.209C70.748,1389.497 68.109,1411.611 71.538,1435.551C75.084,1460.303 84.99,1484.344 101.257,1507.675C117.523,1531.007 139.802,1551.194 168.092,1568.236C196.383,1585.278 229.45,1596.436 267.293,1601.711C290.985,1604.957 312.946,1606.58 333.176,1606.58C361.273,1606.58 389.525,1603.74 417.932,1598.059C410.22,1583.452 404.969,1566.41 402.179,1546.933C398.518,1521.37 399.313,1493.575 404.564,1463.549C409.816,1433.522 419.312,1403.699 433.051,1374.078C447.94,1342.022 466.578,1312.605 488.966,1285.824C511.353,1259.044 535.088,1237.741 560.169,1221.916C557.223,1217.047 552.114,1210.149 544.842,1201.222L542.594,1201.222C538.848,1201.222 533.916,1198.179 527.799,1192.093C524.337,1188.847 521.785,1186.716 520.141,1185.702C518.497,1184.688 517.013,1184.789 515.689,1186.006L515.514,1184.789C515.224,1182.76 515.755,1181.239 517.108,1180.224C518.462,1179.21 520.133,1179.108 522.122,1179.92C519.842,1177.08 518.528,1174.442 518.179,1172.007C517.888,1169.979 518.376,1168.153 519.642,1166.53C520.275,1165.718 521.341,1165.312 522.839,1165.312C525.836,1165.312 528.72,1167.138 531.491,1170.79C531.143,1168.356 531.724,1166.53 533.235,1165.312C534.747,1164.095 536.497,1163.892 538.487,1164.704C537.421,1165.11 537.033,1166.327 537.324,1168.356C537.614,1170.384 539.578,1173.631 543.214,1178.094C546.476,1182.557 548.67,1186.108 549.798,1188.745C550.925,1191.383 551.071,1193.716 550.238,1195.745C556.704,1204.266 561.9,1211.772 565.827,1218.265C592.032,1202.44 616.747,1194.527 639.974,1194.527C649.715,1194.527 657.727,1195.542 664.012,1197.571C676.148,1201.222 685.788,1207.715 692.932,1217.047C700.075,1226.38 704.635,1237.944 706.611,1251.74C709.576,1272.434 706.99,1296.881 698.854,1325.082C690.718,1353.282 677.887,1382.7 660.36,1413.335C642.832,1443.971 621.809,1473.084 597.29,1500.676C552.799,1550.991 494.598,1584.061 422.689,1599.885C430.976,1613.275 441.233,1623.42 453.46,1630.318C466.869,1637.621 481.253,1641.273 496.613,1641.273C510.848,1641.273 525.087,1638.027 539.33,1631.535C553.572,1625.043 568.683,1616.116 584.663,1604.754C630.847,1571.482 675.525,1515.284 718.699,1436.16C761.873,1357.036 802.716,1262.29 841.227,1151.922L810.543,1157.4L799.081,1187.224C785.09,1222.931 773.676,1251.131 764.84,1271.825C756.003,1292.519 745.649,1315.039 733.777,1339.385C710.232,1386.859 687.654,1428.653 666.041,1464.766C644.428,1500.879 619.424,1532.934 591.03,1560.932C562.635,1588.93 532.39,1605.972 500.295,1612.058L501.07,1609.624C532.616,1602.32 562.277,1584.466 590.051,1556.063C617.826,1527.659 642.124,1495.908 662.945,1460.81C683.767,1425.711 706.683,1383.005 731.694,1332.69C751.472,1292.925 771.487,1245.654 791.737,1190.876L803.974,1158.617C791.323,1160.387 778.224,1161.77 764.679,1162.768C763.304,1166.622 762.605,1170.919 762.584,1175.659L761.46,1175.659C761.146,1171.135 761.45,1166.893 762.373,1162.934C745.558,1164.114 728.06,1164.704 709.878,1164.704C688.899,1164.704 664.216,1163.689 635.828,1161.661C583.49,1157.197 538.962,1146.444 502.242,1129.402C465.523,1112.36 437.365,1091.666 417.768,1067.32C398.172,1042.975 386.456,1017.412 382.62,990.631C378.958,965.068 382.178,941.128 392.281,918.811C402.383,896.494 418.528,878.437 440.715,864.642C462.902,850.846 489.543,843.948 520.637,843.948C535.247,843.948 551.056,845.774 568.063,849.425C608.677,858.352 643.241,874.076 671.754,896.595C700.267,919.115 722.392,943.461 738.129,969.633C753.866,995.805 765.135,1020.861 771.936,1044.801L769.688,1044.801C756.048,1012.339 742.723,985.356 729.715,963.851C716.707,942.345 697.742,921.753 672.82,902.073C647.898,882.394 615.517,866.873 575.678,855.512C560.428,851.048 544.936,848.817 529.201,848.817C502.603,848.817 479.586,855.512 460.15,868.902C440.715,882.292 426.478,899.943 417.442,921.854C408.405,943.765 405.66,967.097 409.205,991.848C412.867,1017.412 423.364,1041.656 440.696,1064.582C458.029,1087.507 483.138,1107.187 516.024,1123.62C548.91,1140.054 588.958,1150.908 636.167,1156.183C667.352,1159.429 695.119,1161.052 719.47,1161.052C733.674,1161.052 748.316,1160.489 763.398,1159.364C764.615,1155.825 766.372,1152.533 768.669,1149.488C774.179,1142.184 787.423,1138.532 808.402,1138.532C809.398,1138.532 810.39,1138.533 811.376,1138.534C823.852,1106.481 836.229,1079.497 848.505,1057.582C853.02,1049.873 858.078,1038.105 863.678,1022.281C870.144,1007.267 875.318,996.312 879.2,989.414C883.082,982.516 887.042,980.081 891.078,982.11C893.068,982.922 894.208,984.342 894.498,986.371C895.022,990.022 893.45,995.399 889.785,1002.5C886.119,1009.601 880.259,1019.035 872.204,1030.802C869.155,1035.671 866.121,1040.642 863.101,1045.714C860.082,1050.786 857.076,1055.959 854.086,1061.234C842.964,1082.511 830.964,1108.286 818.085,1138.558C827.712,1138.612 836.87,1138.747 845.558,1138.962L851.091,1122.707C867.343,1074.016 887.546,1033.946 911.7,1002.5C935.855,971.053 960.603,948.33 985.946,934.331C1011.288,920.333 1035.011,913.333 1057.114,913.333C1073.223,913.333 1086.079,916.782 1095.684,923.68C1109.067,933.418 1116.747,945.186 1118.723,958.982C1121.629,979.27 1111.678,1001.993 1088.871,1027.15C1066.063,1052.307 1027.198,1078.479 972.276,1105.665C967.964,1107.836 963.624,1109.949 959.256,1112.005L941.766,1147.662C971.684,1152.531 994.698,1154.965 1010.807,1154.965C1021.671,1154.965 1032.044,1154.154 1041.927,1152.531C1057.687,1150.096 1069.209,1145.531 1076.491,1138.836C1083.774,1132.141 1086.863,1124.939 1085.759,1117.229C1085.178,1113.172 1083.502,1109.317 1080.731,1105.665L1081.855,1105.665C1085,1109.317 1087.009,1114.186 1087.881,1120.273C1089.276,1130.011 1086.773,1139.344 1080.371,1148.27C1073.97,1157.197 1062.673,1162.675 1046.48,1164.704C1039.104,1165.515 1033.355,1165.921 1029.234,1165.921C1012.376,1165.921 988.743,1163.081 958.333,1157.4C954.529,1156.994 947.828,1155.98 938.23,1154.357L804.211,1427.03L796.063,1444.681C784.164,1471.461 775.659,1491.851 770.546,1505.85C765.434,1519.848 763.488,1531.108 764.708,1539.629C765.464,1544.904 767.831,1548.353 771.81,1549.976C773.425,1550.788 775.918,1551.194 779.289,1551.194C787.157,1551.194 795.781,1546.02 805.163,1535.673C806.765,1533.907 808.423,1531.966 810.139,1529.851C808.659,1525.634 807.554,1520.982 806.825,1515.892C802.815,1487.895 811.002,1454.825 831.388,1416.683L887.371,1313.213C890.62,1307.127 894.492,1304.084 898.988,1304.084C900.112,1304.084 903.354,1304.489 908.715,1305.301C910.272,1305.707 912.548,1305.91 915.545,1305.91C920.041,1305.91 925.169,1305.098 930.931,1303.475C891.31,1377.324 864.255,1429.059 849.766,1458.68C843.288,1472.206 838.12,1484.241 834.264,1494.785C835.867,1492.176 837.502,1489.474 839.166,1486.677C849.346,1468.824 865.375,1438.188 887.253,1394.772L890.625,1394.772C868.805,1438.594 852.489,1469.838 841.676,1488.503C837.571,1495.665 833.624,1502.226 829.833,1508.185C826.344,1520.201 825.095,1529.668 826.086,1536.586C827.365,1545.513 831.592,1550.179 838.768,1550.585L845.036,1551.194C871.635,1551.194 896.962,1524.007 921.016,1469.635C927.424,1454.216 932.323,1442.652 935.715,1434.942C947.529,1410.191 959.617,1386.048 971.981,1362.514L996.949,1313.213C999.823,1307.127 1003.508,1304.084 1008.004,1304.084C1009.128,1304.084 1012.37,1304.489 1017.731,1305.301C1019.288,1305.707 1021.565,1305.91 1024.562,1305.91C1028.308,1305.91 1033.062,1305.098 1038.823,1303.475C1025.685,1329.444 1011.956,1355.21 997.636,1380.773C982.799,1407.959 974.518,1423.378 972.793,1427.03L966.195,1439.812C953.231,1466.998 943.481,1488.503 936.944,1504.328C930.407,1520.153 927.749,1532.326 928.969,1540.847C929.609,1545.31 931.759,1548.556 935.422,1550.585C937.036,1551.397 939.342,1551.802 942.339,1551.802C949.832,1551.802 958.456,1546.629 968.213,1536.282C974.492,1529.623 981.8,1520.402 990.137,1508.618C988.739,1496.859 988.861,1484.067 990.503,1470.244C992.286,1455.231 996.036,1440.217 1001.752,1425.204C1015.395,1387.062 1033.628,1356.123 1056.451,1332.386C1079.275,1308.648 1104.002,1298.2 1130.633,1301.04C1148.589,1303.475 1159.078,1315.242 1162.101,1336.342C1163.728,1347.703 1162.837,1361.093 1159.426,1376.512C1195.818,1301.04 1233.101,1223.945 1271.276,1145.227C1309.451,1066.509 1335.782,1012.339 1350.271,982.719C1351.995,979.067 1353.613,976.632 1355.125,975.415C1356.636,974.198 1358.516,973.589 1360.764,973.589C1361.887,973.589 1365.13,973.995 1370.491,974.806C1372.422,975.212 1374.886,975.415 1377.883,975.415C1381.255,975.415 1385.821,974.603 1391.583,972.98L1168.348,1427.03L1160.2,1444.681C1148.302,1471.461 1139.796,1491.851 1134.683,1505.85C1129.571,1519.848 1127.625,1531.108 1128.845,1539.629C1129.601,1544.904 1131.968,1548.353 1135.947,1549.976C1137.562,1550.788 1140.055,1551.194 1143.427,1551.194C1150.568,1551.194 1158.334,1546.931 1166.723,1538.404C1165.667,1535.525 1164.881,1532.281 1164.364,1528.674C1161.109,1505.951 1168.996,1474.707 1188.026,1434.942C1199.84,1410.191 1211.928,1386.048 1224.292,1362.514L1249.26,1313.213C1252.135,1307.127 1255.819,1304.084 1260.315,1304.084C1261.439,1304.084 1264.681,1304.489 1270.042,1305.301C1271.599,1305.707 1273.876,1305.91 1276.873,1305.91C1280.619,1305.91 1285.373,1305.098 1291.135,1303.475C1277.996,1329.444 1264.267,1355.21 1249.947,1380.773C1235.11,1407.959 1226.829,1423.378 1225.104,1427.03L1218.118,1441.029C1205.355,1466.998 1195.64,1488.097 1188.974,1504.328C1187.288,1508.432 1185.855,1512.289 1184.673,1515.9C1190.386,1507.685 1196.596,1497.944 1203.304,1486.677C1213.483,1468.824 1229.512,1438.188 1251.39,1394.772L1254.762,1394.772C1232.942,1438.594 1216.626,1469.838 1205.813,1488.503C1197.153,1503.614 1189.191,1516.048 1181.927,1525.806C1180.57,1531.984 1180.196,1537.2 1180.805,1541.455C1181.387,1545.513 1183.508,1548.556 1187.171,1550.585C1188.785,1551.397 1191.091,1551.802 1194.088,1551.802C1201.955,1551.802 1210.861,1546.629 1220.805,1536.282C1228.766,1527.999 1238.139,1515.75 1248.924,1499.536C1248.54,1497.524 1248.197,1495.47 1247.897,1493.372C1243.77,1464.563 1247.914,1435.957 1260.329,1407.553C1275.619,1373.063 1293.338,1346.384 1313.487,1327.516C1333.637,1308.648 1353.827,1299.214 1374.056,1299.214C1381.549,1299.214 1388.467,1300.432 1394.809,1302.866C1409.426,1308.141 1418.159,1320.72 1421.007,1340.602C1423.506,1358.05 1421.298,1379.251 1414.383,1404.206C1414.362,1404.281 1414.341,1404.357 1414.32,1404.432C1418.936,1395.963 1423.981,1391.729 1429.454,1391.729C1431.327,1391.729 1433.288,1392.337 1435.335,1393.554L1447.243,1374.686C1464.069,1348.312 1478.155,1325.69 1489.501,1306.822C1500.847,1287.954 1508.832,1272.434 1513.457,1260.261C1515.337,1242.002 1518.497,1228.104 1522.938,1218.569C1527.379,1209.033 1531.66,1204.266 1535.781,1204.266C1539.152,1204.266 1541.187,1206.7 1541.884,1211.569C1542.698,1217.25 1540.949,1224.655 1536.638,1233.785C1532.326,1242.915 1525.09,1252.552 1514.93,1262.696L1513.767,1266.348C1513.715,1271.217 1513.864,1274.869 1514.212,1277.303C1515.142,1283.795 1517.204,1290.998 1520.398,1298.91C1523.592,1306.822 1525.492,1311.59 1526.1,1313.213C1531.331,1326.198 1535.458,1337.356 1538.481,1346.689C1541.504,1356.021 1543.829,1366.368 1545.456,1377.73C1547.781,1393.96 1547.933,1412.017 1545.91,1431.899C1543.145,1457.056 1537.272,1479.475 1528.29,1499.154C1519.309,1518.834 1507.677,1533.746 1493.396,1543.89C1520.679,1538.209 1544.733,1519.138 1565.558,1486.677C1577.753,1467.201 1595.28,1436.565 1618.14,1394.772L1621.511,1394.772C1599.918,1434.942 1582.103,1466.186 1568.067,1488.503C1540.053,1533.543 1504.001,1556.469 1459.912,1557.28C1457.722,1557.686 1454.38,1557.889 1449.884,1557.889C1434.15,1557.889 1421.802,1552.107 1412.84,1540.542C1403.878,1528.978 1398.177,1514.675 1395.736,1497.633C1395.196,1493.867 1394.812,1490.137 1394.583,1486.444C1390.472,1485.352 1386.455,1483.198 1382.53,1479.982C1369.302,1502.705 1355.167,1521.066 1340.127,1535.065C1325.087,1549.063 1310.823,1556.063 1297.337,1556.063C1284.974,1556.063 1274.297,1550.179 1265.307,1538.412C1258.115,1528.999 1252.962,1517.51 1249.85,1503.943C1239.362,1519.695 1230.042,1531.692 1221.89,1539.934C1211.255,1550.686 1201.067,1556.063 1191.327,1556.063C1184.584,1556.063 1178.738,1553.831 1173.791,1549.368C1171.565,1547.36 1169.704,1544.859 1168.209,1541.865C1158.873,1550.925 1149.691,1555.454 1140.665,1555.454C1133.173,1555.454 1126.815,1552.918 1121.593,1547.846C1116.371,1542.774 1113.063,1535.369 1111.668,1525.631C1109.517,1510.617 1111.901,1491.952 1118.819,1469.635C1087.595,1528.877 1058.309,1558.497 1030.961,1558.497C1019.722,1558.497 1010.697,1554.338 1003.886,1546.02C997.394,1538.091 993.045,1527.304 990.84,1513.659C983.029,1524.649 975.928,1533.305 969.535,1539.629C958.871,1550.179 948.669,1555.454 938.929,1555.454C931.811,1555.454 925.872,1553.222 921.112,1548.759C916.351,1544.296 913.332,1537.601 912.053,1528.674C910.542,1518.124 911.65,1504.937 915.377,1489.112C901.347,1516.704 887.696,1535.166 874.422,1544.499C861.149,1553.831 848.963,1557.686 837.867,1556.063C830.258,1555.251 823.604,1551.295 817.904,1544.194C815.433,1541.117 813.34,1537.601 811.624,1533.647C809.797,1535.831 808.02,1537.825 806.292,1539.629C796.19,1550.179 786.268,1555.454 776.528,1555.454C769.036,1555.454 762.678,1552.918 757.456,1547.846C752.234,1542.774 748.897,1535.166 747.444,1525.022C744.305,1503.111 750.868,1473.084 767.133,1434.942L904.94,1149.488C891.653,1147.872 879.272,1146.524 867.795,1145.444ZM766.236,1159.146C778.896,1158.146 791.863,1156.753 805.137,1154.965C806.748,1150.621 808.357,1146.361 809.964,1142.184C809.805,1142.184 809.646,1142.184 809.487,1142.184C790.756,1142.184 778.267,1145.227 772.021,1151.314C769.644,1153.63 767.715,1156.241 766.236,1159.146ZM816.519,1142.251C814.928,1146.016 813.324,1149.848 811.706,1153.748L842.39,1148.27L844.013,1143.502C833.961,1142.822 824.796,1142.405 816.519,1142.251ZM849.172,1143.868C848.725,1144.926 848.279,1145.987 847.835,1147.053C851.336,1146.27 854.826,1145.451 858.307,1144.595C855.189,1144.331 852.144,1144.089 849.172,1143.868ZM961.758,1106.902C965.796,1104.923 969.819,1102.887 973.827,1100.796C1025.694,1073.204 1062.866,1047.641 1085.344,1024.107C1107.822,1000.572 1117.87,980.487 1115.487,963.851C1113.917,952.895 1107.51,944.78 1096.265,939.505C1089.373,935.853 1080.682,934.027 1070.193,934.027C1049.214,934.027 1025.52,941.229 999.112,955.634C972.704,970.039 946.047,993.167 919.141,1025.02C893.687,1055.153 871.041,1093.185 851.202,1139.116C859.691,1139.367 867.709,1139.7 875.256,1140.114C889.116,1136.192 902.813,1131.676 916.347,1126.568L986.133,982.719C987.858,979.067 989.476,976.632 990.988,975.415C992.499,974.198 994.379,973.589 996.626,973.589C997.75,973.589 1000.993,973.995 1006.354,974.806C1008.285,975.212 1010.749,975.415 1013.746,975.415C1017.118,975.415 1021.684,974.603 1027.446,972.98L961.758,1106.902ZM884.486,1140.676C893.177,1141.262 901.174,1141.967 908.476,1142.793L914.33,1130.726C904.513,1134.312 894.566,1137.629 884.486,1140.676ZM1026.738,1457.179C1015.628,1492.894 1011.248,1518.957 1013.599,1535.369C1015.459,1548.353 1021.634,1554.846 1032.124,1554.846C1046.734,1554.846 1062.06,1544.803 1078.102,1524.718C1094.143,1504.632 1110.07,1479.171 1125.883,1448.333L1131.27,1434.942L1150.803,1394.772C1158.845,1372.455 1161.703,1353.181 1159.378,1336.95C1158.1,1328.024 1155.022,1320.923 1150.145,1315.648C1145.269,1310.373 1138.523,1307.735 1129.906,1307.735C1113.048,1307.735 1095.867,1320.517 1078.362,1346.08C1060.857,1371.643 1045.959,1401.67 1033.666,1436.16C1032.938,1438.263 1032.228,1440.339 1031.538,1442.387C1039.311,1428.612 1047.972,1412.74 1057.521,1394.772L1060.892,1394.772C1048.328,1418.865 1036.943,1439.667 1026.738,1457.179ZM1397.149,1452.101C1393.42,1460.466 1389.339,1468.746 1384.904,1476.939C1387.758,1480.066 1390.932,1482.189 1394.425,1483.308C1394.014,1472.598 1394.922,1462.196 1397.149,1452.101ZM1279.68,1456.094C1277.774,1462.931 1276.106,1469.676 1274.677,1476.33C1270.407,1496.213 1269.202,1512.646 1271.062,1525.631C1273.736,1544.296 1282.378,1553.628 1296.988,1553.628C1310.1,1553.628 1323.974,1546.527 1338.611,1532.326C1353.247,1518.124 1366.805,1499.662 1379.285,1476.939L1379.197,1476.33C1376.427,1472.678 1374.692,1468.418 1373.995,1463.549C1372.891,1455.839 1374.011,1447.318 1377.357,1437.986C1380.703,1428.653 1385.377,1420.741 1391.377,1414.248C1397.378,1407.756 1403.563,1404.51 1409.931,1404.51C1417.767,1378.135 1420.493,1356.63 1418.11,1339.994C1415.785,1323.763 1408.438,1313.01 1396.069,1307.735C1392.465,1306.112 1388.415,1305.301 1383.919,1305.301C1368.56,1305.301 1352.953,1315.344 1337.098,1335.429C1321.244,1355.514 1306.838,1381.787 1293.881,1414.248C1290.177,1423.582 1286.876,1432.763 1283.975,1441.79C1291.708,1428.111 1300.327,1412.438 1309.832,1394.772L1313.203,1394.772C1300.897,1418.369 1289.723,1438.81 1279.68,1456.094ZM1397.436,1487.029C1397.665,1490.534 1398.035,1494.069 1398.545,1497.633C1400.928,1514.269 1406.355,1527.964 1414.826,1538.716C1423.297,1549.469 1435.212,1554.846 1450.572,1554.846C1473.05,1554.846 1489.54,1542.47 1500.043,1517.718C1510.546,1492.967 1516.121,1461.926 1516.767,1424.595C1517.64,1383.613 1516.326,1345.674 1512.826,1310.779C1512.594,1309.156 1512.198,1303.779 1511.64,1294.65C1511.081,1285.52 1511.086,1277.709 1511.655,1271.217C1503.522,1290.288 1486.153,1320.72 1459.547,1362.514C1456.24,1368.194 1452.825,1373.773 1449.301,1379.251C1445.778,1384.729 1442.363,1390.308 1439.055,1395.989C1442.201,1399.641 1440.544,1405.727 1434.085,1414.248C1427.626,1422.769 1416.968,1432.711 1402.112,1444.072C1398.305,1456.916 1396.692,1470.22 1397.272,1483.986C1398.341,1484.157 1399.437,1484.243 1400.561,1484.243C1404.682,1484.243 1409.161,1482.822 1413.999,1479.982C1421.659,1475.924 1429.178,1467.606 1436.555,1455.028C1443.931,1442.449 1452.247,1426.624 1461.504,1407.553L1467.54,1394.772L1470.912,1394.772C1469.503,1398.018 1465.271,1407.046 1458.214,1421.856C1451.157,1436.667 1443.774,1449.854 1436.065,1461.418C1428.356,1472.983 1421.362,1480.388 1415.084,1483.634C1409.813,1486.069 1405.118,1487.286 1400.997,1487.286C1399.802,1487.286 1398.615,1487.2 1397.436,1487.029ZM655.853,1318.725C647.859,1319.988 639.848,1324.339 631.819,1331.777C623.715,1339.284 617.339,1350.341 612.688,1364.948L608.085,1383.816C600.779,1419.118 594.31,1443.261 588.677,1456.245C575.442,1497.227 554.488,1530.094 525.816,1554.846C550.638,1539.832 572.877,1521.167 592.533,1498.85C629.628,1457.056 658.472,1413.234 679.064,1367.383C699.657,1321.531 707.744,1283.187 703.327,1252.349C699.433,1225.163 685.94,1208.12 662.849,1201.222C656.564,1199.194 648.926,1198.179 639.935,1198.179C617.458,1198.179 593.462,1205.889 567.949,1221.308C571.443,1227.394 576.122,1236.524 581.987,1248.697C589.847,1266.956 595.579,1288.665 599.183,1313.822C603.542,1344.254 603.851,1373.875 600.111,1402.684C603.806,1384.019 607.42,1370.02 610.954,1360.688C616.354,1346.08 623.336,1335.327 631.901,1328.429C640.466,1321.531 649.777,1317.88 659.833,1317.474C649.266,1324.778 640.341,1331.777 633.059,1338.472C625.776,1345.167 620.671,1353.993 617.745,1364.948C620.135,1363.325 624.469,1360.89 630.747,1357.644C640.856,1352.369 648.819,1347.805 654.635,1343.95C660.451,1340.095 666.612,1334.719 673.116,1327.821C685.26,1313.213 690.676,1300.026 689.365,1288.259C686.717,1290.693 679.473,1293.737 667.633,1297.388C654.728,1301.446 645.165,1305.301 638.945,1308.953C617.778,1320.72 606.565,1341.82 605.305,1372.252C604.711,1357.644 607.036,1344.457 612.281,1332.69C617.526,1320.923 626.053,1311.793 637.86,1305.301C642.756,1302.866 650.591,1300.026 661.365,1296.78C669.632,1294.345 676.229,1292.012 681.154,1289.78C686.079,1287.549 690.153,1284.607 693.376,1280.955C693.983,1282.578 694.067,1286.433 693.628,1292.519C693.189,1298.606 691.54,1305.402 688.681,1312.909C685.823,1320.416 681.429,1327.009 675.5,1332.69C669.686,1339.182 663.591,1344.356 657.212,1348.21C650.834,1352.065 643.281,1356.224 634.555,1360.688C625.771,1364.745 619.018,1368.6 614.296,1372.252C615.149,1362.514 618.286,1353.688 623.709,1345.776C629.131,1337.863 635.147,1331.473 641.754,1326.603C648.199,1321.855 652.898,1319.229 655.853,1318.725ZM434.397,1379.556C421.233,1407.959 412.248,1436.768 407.442,1465.983C402.636,1495.198 402.006,1522.182 405.551,1546.933C408.283,1566.004 413.476,1582.64 421.129,1596.842C454.607,1589.944 485.543,1578.38 513.937,1562.149L520.458,1556.671C534.152,1537.195 543.214,1512.849 547.646,1483.634C548.673,1475.113 548.605,1466.795 547.443,1458.68C545.757,1446.912 542.394,1435.855 537.353,1425.508C532.312,1415.161 526.633,1407.553 520.316,1402.684C528.079,1412.422 534.435,1425.407 539.382,1441.637C541.869,1448.535 543.664,1455.839 544.769,1463.549C546.105,1472.881 545.524,1480.591 543.024,1486.677C541.319,1482.62 538.879,1478.663 535.705,1474.809C532.53,1470.954 528.101,1466.186 522.417,1460.505C511.973,1450.361 503.676,1440.826 497.527,1431.899C491.379,1422.972 487.345,1411.814 485.427,1398.424C484.032,1388.685 484.071,1379.15 485.544,1369.817C487.017,1360.485 489.068,1352.572 491.697,1346.08C494.326,1339.588 496.331,1335.936 497.713,1335.124C499.218,1340.399 502.201,1346.182 506.661,1352.471C511.12,1358.76 517.449,1366.977 525.645,1377.121C537.361,1390.917 544.967,1400.858 548.461,1406.945C554.9,1417.9 558.963,1429.262 560.649,1441.029C562.741,1455.636 560.958,1470.65 555.3,1486.069C559.143,1471.055 560.164,1457.259 558.362,1444.681C556.56,1432.102 551.849,1420.132 544.227,1408.771C540.791,1403.09 536.317,1396.699 530.804,1389.598C525.291,1382.497 521.611,1377.73 519.764,1375.295C518.408,1373.672 514.973,1369.31 509.46,1362.209C503.948,1355.108 500.31,1349.326 498.546,1344.863C491.299,1357.036 488.983,1372.252 491.599,1390.511C493.691,1405.119 497.747,1417.089 503.767,1426.421C509.787,1435.754 517.428,1445.289 526.69,1455.028C535.028,1463.549 540.541,1470.65 543.228,1476.33C543.628,1473.896 543.48,1470.244 542.782,1465.375C541.852,1458.882 540.302,1451.984 538.132,1444.681C535.904,1436.971 532.985,1429.667 529.374,1422.769C525.764,1415.871 520.826,1407.553 514.561,1397.815C524.107,1404.307 532.287,1413.031 539.101,1423.987C545.916,1434.942 550.224,1446.71 552.025,1459.288C553.072,1466.592 553.052,1474.301 551.967,1482.417C550.055,1497.836 547.455,1510.414 544.167,1520.153C540.879,1529.891 535.25,1539.629 527.279,1549.368C557.644,1518.124 578.346,1479.576 589.385,1433.725L588.523,1435.551C590.183,1426.218 590.847,1415.161 590.515,1402.38C590.182,1389.598 589.26,1377.933 587.749,1367.383C586.935,1361.702 585.805,1356.427 584.358,1351.558C582.356,1340.197 577.871,1330.458 570.902,1322.343C563.932,1314.228 556.873,1308.75 549.723,1305.91C552.519,1307.127 556.341,1310.271 561.189,1315.344C566.036,1320.416 570.662,1327.212 575.067,1335.733C579.472,1344.254 582.459,1353.993 584.029,1364.948C584.842,1370.629 585.123,1376.512 584.871,1382.599C581.894,1374.889 578.371,1368.6 574.301,1363.731C570.232,1358.862 564.332,1352.978 556.601,1346.08C547.687,1338.776 540.214,1331.067 534.182,1322.952C527.542,1313.213 523.234,1301.446 521.258,1287.65C520.56,1282.781 520.266,1278.115 520.376,1273.651C520.486,1269.188 520.858,1266.55 521.491,1265.739C524.869,1271.014 528.836,1275.173 533.393,1278.216C537.95,1281.259 544.02,1284.404 551.602,1287.65C559.56,1290.896 565.212,1293.737 568.557,1296.171C581.94,1305.91 589.94,1319.908 592.555,1338.168C593.718,1346.283 593.756,1354.398 592.671,1362.514C592.923,1356.427 592.584,1350.138 591.654,1343.646C588.806,1323.763 580.532,1309.156 566.833,1299.823C563.054,1296.983 556.162,1293.331 546.157,1288.867L538.891,1285.216C534.854,1283.187 531.675,1281.259 529.353,1279.433C527.031,1277.607 525.162,1275.68 523.748,1273.651C523.031,1276.492 522.992,1280.144 523.632,1284.607C525.433,1297.186 530.274,1308.75 538.154,1319.3C541.965,1324.98 546.25,1330.052 551.011,1334.516L559.449,1342.428C565.824,1347.703 570.801,1352.369 574.379,1356.427C577.957,1360.485 580.773,1365.76 582.827,1372.252C579.74,1345.471 567.711,1322.952 546.738,1304.692C555.962,1306.315 564.275,1311.387 571.677,1319.908C579.079,1328.429 584.343,1338.371 587.469,1349.732C590.51,1363.122 592.264,1371.44 592.729,1374.686C594.298,1385.642 594.744,1396.598 594.065,1407.553C598.264,1376.715 598.184,1346.08 593.825,1315.648C590.338,1291.302 584.664,1269.999 576.803,1251.74C574.808,1245.654 569.97,1236.727 562.29,1224.96C537.326,1241.596 513.398,1263.507 490.506,1290.693C467.614,1317.88 448.912,1347.5 434.397,1379.556ZM1299.943,1223.742C1304.955,1222.119 1308.476,1219.888 1310.504,1217.047C1312.532,1214.207 1313.113,1212.381 1312.248,1211.569C1308.702,1210.352 1305.789,1208.323 1303.509,1205.483C1301.229,1202.643 1299.827,1199.397 1299.304,1195.745C1298.374,1189.252 1300.154,1183.369 1304.643,1178.094C1309.132,1172.819 1314.561,1170.182 1320.93,1170.182C1325.8,1170.182 1329.837,1172.21 1333.04,1176.268C1336.244,1180.326 1337.878,1185.195 1337.942,1190.876C1337.639,1201.831 1333.694,1210.251 1326.107,1216.134C1318.521,1222.018 1310.391,1224.757 1301.716,1224.351L1299.943,1223.742Z" style="fill:rgb(173,50,33);"/>
    </g>
    <g transform="matrix(2.067148,0,0,3.152315,468.316359,120.906542)">
        <path d="M376.809,319.441C374.45,321.425 371.95,323.066 369.31,324.363C365.395,326.286 361.79,327.247 358.493,327.247C354.235,327.247 350.801,325.736 348.191,322.714C345.582,319.692 344.277,315.297 344.277,309.528L344.277,224.436L363.232,224.436L363.232,309.528C363.232,317.357 365.155,321.272 369.001,321.272C371.089,321.272 373.502,320.192 376.239,318.031C375.397,315.64 374.976,312.806 374.976,309.528L374.976,223.818L362.614,223.818L362.614,221.14L374.976,221.14L374.976,200.742L393.519,183.229L393.931,183.229L393.931,221.14L409.589,221.14L409.589,223.818L393.931,223.818L393.931,309.528C393.931,317.357 395.854,321.272 399.7,321.272C402.584,321.272 406.087,319.212 410.208,315.091C410.62,314.816 410.929,314.851 411.135,315.194C411.341,315.537 411.238,315.915 410.826,316.327C407.529,319.761 403.924,322.44 400.009,324.363C396.094,326.286 392.489,327.247 389.192,327.247C384.934,327.247 381.5,325.736 378.89,322.714C378.066,321.76 377.372,320.669 376.809,319.441ZM557.746,321.031C555.993,322.319 554.167,323.43 552.268,324.363C548.353,326.286 544.748,327.247 541.451,327.247C537.193,327.247 533.759,325.736 531.15,322.714C528.54,319.692 527.235,315.297 527.235,309.528L527.235,282.95C523.938,297.097 518.719,308.086 511.576,315.915C504.434,323.744 495.78,327.659 485.616,327.659C476.138,327.659 468.721,324.775 463.364,319.006C458.007,313.237 455.329,304.789 455.329,293.664L455.329,224.436L474.284,224.436L474.284,296.548C474.284,305.201 475.658,311.863 478.405,316.533C481.152,321.203 485.41,323.538 491.179,323.538C496.261,323.538 501.275,321.444 506.219,317.254C511.164,313.065 515.56,306.609 519.406,297.887C523.252,289.165 525.861,278.348 527.235,265.437L527.235,224.436L546.19,224.436L546.19,309.528C546.19,317.357 548.113,321.272 551.959,321.272C553.44,321.272 555.084,320.729 556.891,319.642L556.492,293.457L557.11,293.457C558.895,298.952 561.711,304.48 565.557,310.043C569.403,315.606 573.902,320.242 579.052,323.951C584.203,327.659 589.526,329.513 595.02,329.513C601.064,329.513 605.974,327.762 609.751,324.26C613.529,320.757 615.417,316.053 615.417,310.146C615.417,308.498 615.211,306.644 614.799,304.583C613.838,299.501 611.125,295.277 606.661,291.912C602.197,288.547 595.776,284.873 587.397,280.889C580.529,277.456 575,274.399 570.811,271.721C566.622,269.042 563.05,265.677 560.097,261.625C557.144,257.573 555.668,252.731 555.668,247.1C555.668,239.408 558.483,232.986 564.115,227.836C569.747,222.685 577.851,220.109 588.427,220.109C596.119,220.109 602.197,220.934 606.661,222.582C611.125,224.23 615.829,226.702 620.774,229.999L620.774,256.165L620.362,256.165C616.928,245.864 613.014,237.691 608.618,231.647C604.223,225.604 597.973,222.582 589.869,222.582C584.238,222.582 579.602,224.058 575.962,227.012C572.322,229.965 570.502,233.982 570.502,239.064C570.502,240.987 570.983,243.529 571.944,246.688C573.318,250.808 576.031,254.277 580.083,257.092C584.135,259.908 589.869,263.033 597.286,266.467C604.704,269.901 610.644,273.026 615.108,275.842C619.572,278.657 623.384,282.435 626.543,287.173C629.702,291.912 631.282,297.716 631.282,304.583C631.282,309.665 629.565,314.267 626.131,318.388C622.697,322.508 618.233,325.77 612.739,328.174C607.245,330.578 601.476,331.78 595.432,331.78C580.851,331.78 568.289,328.197 557.746,321.031ZM783.541,291.979L783.541,327.453L764.586,327.453L764.586,255.341L694.328,255.341L694.328,327.453L675.373,327.453L675.373,183.229L694.328,183.229L694.328,252.663L764.586,252.663L764.586,183.229L783.541,183.229L783.541,261.361C784.588,256.804 786.133,252.565 788.177,248.645C792.366,240.61 797.861,234.429 804.66,230.102C811.459,225.775 818.498,223.612 825.778,223.612C831.959,223.612 837.762,225.192 843.188,228.351C848.614,231.51 853.112,236.111 856.683,242.155L874.814,222.994L875.226,222.994L875.226,309.528C875.226,317.073 877.012,320.982 880.583,321.257L880.583,224.436L899.538,224.436L899.538,266.055C902.698,251.907 906.887,241.674 912.106,235.356C917.326,229.038 923.85,225.878 931.68,225.878C934.564,225.878 937.174,226.153 939.509,226.702L939.509,238.327C942.585,234.627 946.087,231.611 950.017,229.278C956.61,225.363 963.546,223.406 970.826,223.406C977.557,223.406 983.738,225.054 989.369,228.351C995.001,231.647 999.327,236.455 1002.349,242.773L1002.349,183.229L1021.304,183.229L1021.304,309.528C1021.304,317.357 1023.227,321.272 1027.073,321.272C1029.958,321.272 1033.46,319.212 1037.581,315.091C1037.993,314.816 1038.302,314.851 1038.508,315.194C1038.714,315.537 1038.611,315.915 1038.199,316.327C1034.903,319.761 1031.297,322.44 1027.382,324.363C1023.468,326.286 1019.794,327.247 1016.36,327.247C1012.239,327.247 1008.908,325.805 1006.367,322.92C1003.826,320.036 1002.487,315.847 1002.349,310.352C999.327,316.259 995.241,320.723 990.09,323.744C984.939,326.766 979.273,328.277 973.092,328.277C965.675,328.277 958.464,326.148 951.459,321.89C944.454,317.632 938.719,311.451 934.255,303.347C929.791,295.243 927.559,285.697 927.559,274.708C927.559,263.857 929.654,254.551 933.843,246.791C934.881,244.869 935.992,243.065 937.177,241.379C935.006,240.935 932.762,240.713 930.443,240.713C922.614,240.713 915.849,243.666 910.149,249.572C904.449,255.479 900.912,264.75 899.538,277.387L899.538,327.453L880.583,327.453L880.583,324.708C876.946,326.401 873.581,327.247 870.488,327.247C866.229,327.247 862.796,325.736 860.186,322.714C857.576,319.692 856.271,315.297 856.271,309.528L856.271,301.493C852.837,309.872 848.098,316.224 842.055,320.551C836.011,324.878 829.487,327.041 822.482,327.041C815.614,327.041 809.055,325.015 802.805,320.963C796.556,316.911 791.508,311.073 787.662,303.45C785.872,299.902 784.498,296.078 783.541,291.979ZM945.896,274.502C945.896,285.353 947.373,294.488 950.326,301.905C953.279,309.322 957.159,314.782 961.967,318.285C966.774,321.787 971.856,323.538 977.213,323.538C982.982,323.538 988.202,321.615 992.872,317.769C997.542,313.924 1000.701,308.704 1002.349,302.111L1002.349,249.366C1000.152,242.636 996.683,237.382 991.945,233.605C987.206,229.827 982.089,227.939 976.595,227.939C971.376,227.939 966.431,229.656 961.761,233.09C957.09,236.523 953.279,241.743 950.326,248.748C947.373,255.753 945.896,264.338 945.896,274.502ZM800.23,276.563C800.23,286.59 801.5,295.071 804.042,302.008C806.583,308.944 809.948,314.095 814.137,317.46C818.327,320.826 822.825,322.508 827.632,322.508C833.951,322.508 839.823,319.795 845.248,314.37C850.674,308.944 854.348,301.493 856.271,292.015L856.271,247.1C853.112,240.644 849.3,235.768 844.836,232.471C840.372,229.175 835.736,227.527 830.929,227.527C825.572,227.527 820.559,229.484 815.889,233.399C811.218,237.313 807.441,242.979 804.557,250.396C801.672,257.814 800.23,266.536 800.23,276.563ZM1113.814,306.464C1110.277,312.118 1105.297,316.985 1098.876,321.066C1091.528,325.736 1082.565,328.071 1071.989,328.071C1062.374,328.071 1053.961,325.667 1046.75,320.86C1039.538,316.053 1034.044,309.631 1030.267,301.596C1026.49,293.56 1024.601,284.873 1024.601,275.533C1024.601,263.995 1027.073,254.345 1032.018,246.585C1036.963,238.824 1043.35,233.055 1051.179,229.278C1059.009,225.501 1067.25,223.612 1075.903,223.612C1082.771,223.612 1089.193,224.745 1095.168,227.012C1101.143,229.278 1105.916,232.609 1109.487,237.004C1111.492,239.472 1112.934,242.156 1113.814,245.057L1113.814,224.436L1132.769,224.436L1132.769,266.055C1135.928,251.907 1140.117,241.674 1145.337,235.356C1150.556,229.038 1157.081,225.878 1164.91,225.878C1167.795,225.878 1170.404,226.153 1172.739,226.702L1172.739,241.949C1169.855,241.125 1166.833,240.713 1163.674,240.713C1155.845,240.713 1149.08,243.666 1143.38,249.572C1137.679,255.479 1134.142,264.75 1132.769,277.387L1132.769,327.453L1113.814,327.453L1113.814,306.464ZM1113.814,259.57C1111.301,267.928 1104.193,274.21 1092.489,278.417C1077.586,283.774 1061.206,286.796 1043.35,287.482C1045.822,305.476 1053.995,316.945 1067.868,321.89C1071.577,323.126 1075.285,323.744 1078.994,323.744C1085.999,323.744 1092.592,321.787 1098.773,317.873C1104.954,313.958 1109.693,309.047 1112.99,303.141C1113.239,302.725 1113.514,302.435 1113.814,302.271L1113.814,259.57ZM1042.732,274.09C1042.732,279.31 1042.869,283.156 1043.144,285.628C1055.643,284.667 1067.559,281.439 1078.891,275.945C1090.223,270.45 1095.889,261.591 1095.889,249.366C1095.889,242.086 1093.863,236.283 1089.811,231.956C1085.759,227.63 1080.78,225.466 1074.873,225.466C1069.654,225.466 1064.606,227.218 1059.73,230.72C1054.854,234.223 1050.836,239.648 1047.677,246.997C1044.518,254.345 1042.869,263.377 1042.732,274.09ZM318.522,252.663L318.522,183.229L337.478,183.229L337.478,327.453L318.522,327.453L318.522,255.341L248.265,255.341L248.265,327.453L229.31,327.453L229.31,183.229L248.265,183.229L248.265,252.663L318.522,252.663ZM353.754,203.627C351.144,203.627 348.912,202.699 347.058,200.845C345.204,198.991 344.277,196.759 344.277,194.149C344.277,191.539 345.204,189.307 347.058,187.453C348.912,185.599 351.144,184.672 353.754,184.672C356.364,184.672 358.596,185.599 360.45,187.453C362.305,189.307 363.232,191.539 363.232,194.149C363.232,196.759 362.305,198.991 360.45,200.845C358.596,202.699 356.364,203.627 353.754,203.627Z" style="fill:rgb(223,210,227);"/>
    </g>
</svg>
